<mxfile host="app.diagrams.net" modified="2024-07-19T23:23:43.406Z" agent="Mozilla/5.0 (Windows NT 10.0; Win64; x64; rv:126.0) Gecko/20100101 Firefox/126.0" etag="zEzcXuTwTeqUIy1Rsdrj" version="24.7.2" type="github">
  <diagram id="C5RBs43oDa-KdzZeNtuy" name="Page-1">
    <mxGraphModel dx="1941" dy="727" grid="1" gridSize="10" guides="1" tooltips="1" connect="1" arrows="1" fold="1" page="1" pageScale="1" pageWidth="827" pageHeight="1169" math="0" shadow="0">
      <root>
        <mxCell id="WIyWlLk6GJQsqaUBKTNV-0" />
        <mxCell id="WIyWlLk6GJQsqaUBKTNV-1" parent="WIyWlLk6GJQsqaUBKTNV-0" />
        <mxCell id="fn--iJWpwkI6Ji2KhRYZ-12" value="" style="ellipse;whiteSpace=wrap;html=1;fillColor=#000000;" vertex="1" parent="WIyWlLk6GJQsqaUBKTNV-1">
          <mxGeometry x="100" y="140" width="10" height="10" as="geometry" />
        </mxCell>
        <mxCell id="fn--iJWpwkI6Ji2KhRYZ-13" value="" style="endArrow=classic;html=1;rounded=0;" edge="1" parent="WIyWlLk6GJQsqaUBKTNV-1">
          <mxGeometry width="50" height="50" relative="1" as="geometry">
            <mxPoint x="110" y="140" as="sourcePoint" />
            <mxPoint x="160" y="140" as="targetPoint" />
          </mxGeometry>
        </mxCell>
        <mxCell id="fn--iJWpwkI6Ji2KhRYZ-14" value="GUI" style="rounded=0;whiteSpace=wrap;html=1;" vertex="1" parent="WIyWlLk6GJQsqaUBKTNV-1">
          <mxGeometry x="160" y="115" width="60" height="55" as="geometry" />
        </mxCell>
        <mxCell id="fn--iJWpwkI6Ji2KhRYZ-15" value="" style="endArrow=classic;html=1;rounded=0;" edge="1" parent="WIyWlLk6GJQsqaUBKTNV-1">
          <mxGeometry width="50" height="50" relative="1" as="geometry">
            <mxPoint x="220" y="140" as="sourcePoint" />
            <mxPoint x="280" y="140" as="targetPoint" />
          </mxGeometry>
        </mxCell>
        <mxCell id="fn--iJWpwkI6Ji2KhRYZ-21" value="&lt;div&gt;Obtain&lt;/div&gt;&lt;div&gt;User Stock Data&lt;/div&gt;" style="rounded=1;whiteSpace=wrap;html=1;" vertex="1" parent="WIyWlLk6GJQsqaUBKTNV-1">
          <mxGeometry x="280" y="112.5" width="80" height="47.5" as="geometry" />
        </mxCell>
        <mxCell id="fn--iJWpwkI6Ji2KhRYZ-22" value="&lt;div&gt;User Stock data (or default data)&lt;br&gt;&lt;/div&gt;" style="rounded=0;whiteSpace=wrap;html=1;" vertex="1" parent="WIyWlLk6GJQsqaUBKTNV-1">
          <mxGeometry x="420" y="115" width="70" height="65" as="geometry" />
        </mxCell>
        <mxCell id="fn--iJWpwkI6Ji2KhRYZ-24" value="" style="endArrow=classic;html=1;rounded=0;" edge="1" parent="WIyWlLk6GJQsqaUBKTNV-1">
          <mxGeometry width="50" height="50" relative="1" as="geometry">
            <mxPoint x="360" y="137" as="sourcePoint" />
            <mxPoint x="420" y="137" as="targetPoint" />
          </mxGeometry>
        </mxCell>
        <mxCell id="fn--iJWpwkI6Ji2KhRYZ-26" value="" style="endArrow=classic;html=1;rounded=0;" edge="1" parent="WIyWlLk6GJQsqaUBKTNV-1">
          <mxGeometry width="50" height="50" relative="1" as="geometry">
            <mxPoint x="490" y="136" as="sourcePoint" />
            <mxPoint x="540" y="135.75" as="targetPoint" />
          </mxGeometry>
        </mxCell>
        <mxCell id="fn--iJWpwkI6Ji2KhRYZ-28" value="ML Algorithm" style="rounded=1;whiteSpace=wrap;html=1;" vertex="1" parent="WIyWlLk6GJQsqaUBKTNV-1">
          <mxGeometry x="540" y="115" width="80" height="47.5" as="geometry" />
        </mxCell>
        <mxCell id="fn--iJWpwkI6Ji2KhRYZ-30" value="" style="endArrow=classic;html=1;rounded=0;" edge="1" parent="WIyWlLk6GJQsqaUBKTNV-1">
          <mxGeometry width="50" height="50" relative="1" as="geometry">
            <mxPoint x="579.5" y="55" as="sourcePoint" />
            <mxPoint x="579.5" y="112.5" as="targetPoint" />
          </mxGeometry>
        </mxCell>
        <mxCell id="fn--iJWpwkI6Ji2KhRYZ-31" value="Training Data" style="rounded=0;whiteSpace=wrap;html=1;" vertex="1" parent="WIyWlLk6GJQsqaUBKTNV-1">
          <mxGeometry x="550" y="10" width="60" height="45" as="geometry" />
        </mxCell>
        <mxCell id="fn--iJWpwkI6Ji2KhRYZ-35" value="" style="endArrow=classic;html=1;rounded=0;" edge="1" parent="WIyWlLk6GJQsqaUBKTNV-1">
          <mxGeometry width="50" height="50" relative="1" as="geometry">
            <mxPoint x="580" y="162.5" as="sourcePoint" />
            <mxPoint x="580" y="210" as="targetPoint" />
          </mxGeometry>
        </mxCell>
        <mxCell id="fn--iJWpwkI6Ji2KhRYZ-37" value="&lt;div&gt;Raw Predictions&lt;/div&gt;" style="rounded=0;whiteSpace=wrap;html=1;" vertex="1" parent="WIyWlLk6GJQsqaUBKTNV-1">
          <mxGeometry x="545" y="210" width="70" height="60" as="geometry" />
        </mxCell>
        <mxCell id="fn--iJWpwkI6Ji2KhRYZ-42" value="" style="endArrow=classic;html=1;rounded=0;" edge="1" parent="WIyWlLk6GJQsqaUBKTNV-1">
          <mxGeometry width="50" height="50" relative="1" as="geometry">
            <mxPoint x="615" y="300" as="sourcePoint" />
            <mxPoint x="660" y="330" as="targetPoint" />
          </mxGeometry>
        </mxCell>
        <mxCell id="fn--iJWpwkI6Ji2KhRYZ-43" value="" style="endArrow=none;html=1;rounded=0;strokeWidth=4;" edge="1" parent="WIyWlLk6GJQsqaUBKTNV-1">
          <mxGeometry width="50" height="50" relative="1" as="geometry">
            <mxPoint x="545" y="300" as="sourcePoint" />
            <mxPoint x="615" y="300" as="targetPoint" />
          </mxGeometry>
        </mxCell>
        <mxCell id="fn--iJWpwkI6Ji2KhRYZ-44" value="" style="endArrow=classic;html=1;rounded=0;" edge="1" parent="WIyWlLk6GJQsqaUBKTNV-1">
          <mxGeometry width="50" height="50" relative="1" as="geometry">
            <mxPoint x="579.5" y="270" as="sourcePoint" />
            <mxPoint x="580" y="300" as="targetPoint" />
          </mxGeometry>
        </mxCell>
        <mxCell id="fn--iJWpwkI6Ji2KhRYZ-45" value="Log Predictions" style="rounded=1;whiteSpace=wrap;html=1;" vertex="1" parent="WIyWlLk6GJQsqaUBKTNV-1">
          <mxGeometry x="660" y="330" width="100" height="40" as="geometry" />
        </mxCell>
        <mxCell id="fn--iJWpwkI6Ji2KhRYZ-47" value="" style="endArrow=classic;html=1;rounded=0;" edge="1" parent="WIyWlLk6GJQsqaUBKTNV-1">
          <mxGeometry width="50" height="50" relative="1" as="geometry">
            <mxPoint x="540" y="300" as="sourcePoint" />
            <mxPoint x="490" y="330" as="targetPoint" />
          </mxGeometry>
        </mxCell>
        <mxCell id="fn--iJWpwkI6Ji2KhRYZ-50" value="Read / Prepare data" style="rounded=1;whiteSpace=wrap;html=1;" vertex="1" parent="WIyWlLk6GJQsqaUBKTNV-1">
          <mxGeometry x="390" y="330" width="100" height="40" as="geometry" />
        </mxCell>
        <mxCell id="fn--iJWpwkI6Ji2KhRYZ-51" value="" style="endArrow=classic;html=1;rounded=0;" edge="1" parent="WIyWlLk6GJQsqaUBKTNV-1">
          <mxGeometry width="50" height="50" relative="1" as="geometry">
            <mxPoint x="390" y="350" as="sourcePoint" />
            <mxPoint x="340" y="350" as="targetPoint" />
          </mxGeometry>
        </mxCell>
        <mxCell id="fn--iJWpwkI6Ji2KhRYZ-53" value="&lt;div&gt;Prediction&lt;/div&gt;&lt;div&gt;Data&lt;br&gt;&lt;/div&gt;" style="rounded=0;whiteSpace=wrap;html=1;" vertex="1" parent="WIyWlLk6GJQsqaUBKTNV-1">
          <mxGeometry x="270" y="320" width="70" height="65" as="geometry" />
        </mxCell>
        <mxCell id="fn--iJWpwkI6Ji2KhRYZ-54" value="" style="endArrow=classic;html=1;rounded=0;entryX=0.5;entryY=1;entryDx=0;entryDy=0;" edge="1" parent="WIyWlLk6GJQsqaUBKTNV-1" target="fn--iJWpwkI6Ji2KhRYZ-14">
          <mxGeometry width="50" height="50" relative="1" as="geometry">
            <mxPoint x="270" y="320" as="sourcePoint" />
            <mxPoint x="320" y="270" as="targetPoint" />
          </mxGeometry>
        </mxCell>
        <mxCell id="fn--iJWpwkI6Ji2KhRYZ-55" value="&lt;div&gt;Note: GUI will give this data through the GUI&lt;/div&gt;" style="text;html=1;align=center;verticalAlign=middle;whiteSpace=wrap;rounded=0;" vertex="1" parent="WIyWlLk6GJQsqaUBKTNV-1">
          <mxGeometry x="70" y="240" width="160" height="40" as="geometry" />
        </mxCell>
        <mxCell id="fn--iJWpwkI6Ji2KhRYZ-56" value="&lt;b&gt;&lt;u&gt;&lt;font style=&quot;font-size: 23px;&quot;&gt;Rough Draft UML Diagram&lt;/font&gt;&lt;/u&gt;&lt;/b&gt;" style="text;html=1;align=center;verticalAlign=middle;whiteSpace=wrap;rounded=0;" vertex="1" parent="WIyWlLk6GJQsqaUBKTNV-1">
          <mxGeometry x="-50" y="40" width="390" height="45" as="geometry" />
        </mxCell>
        <mxCell id="fn--iJWpwkI6Ji2KhRYZ-57" value="" style="rounded=0;whiteSpace=wrap;html=1;" vertex="1" parent="WIyWlLk6GJQsqaUBKTNV-1">
          <mxGeometry x="65" y="520" width="35" height="30" as="geometry" />
        </mxCell>
        <mxCell id="fn--iJWpwkI6Ji2KhRYZ-60" value="&lt;div style=&quot;font-size: 15px;&quot; align=&quot;left&quot;&gt;&lt;b&gt;- Objects / Data&lt;br&gt;&lt;/b&gt;&lt;/div&gt;" style="text;html=1;align=left;verticalAlign=middle;whiteSpace=wrap;rounded=0;" vertex="1" parent="WIyWlLk6GJQsqaUBKTNV-1">
          <mxGeometry x="105" y="520" width="115" height="30" as="geometry" />
        </mxCell>
        <mxCell id="fn--iJWpwkI6Ji2KhRYZ-61" value="" style="rounded=1;whiteSpace=wrap;html=1;" vertex="1" parent="WIyWlLk6GJQsqaUBKTNV-1">
          <mxGeometry x="65" y="570" width="35" height="30" as="geometry" />
        </mxCell>
        <mxCell id="fn--iJWpwkI6Ji2KhRYZ-64" value="&lt;div style=&quot;font-size: 15px;&quot; align=&quot;left&quot;&gt;&lt;b&gt;- Methods&lt;br&gt;&lt;/b&gt;&lt;/div&gt;" style="text;html=1;align=left;verticalAlign=middle;whiteSpace=wrap;rounded=0;" vertex="1" parent="WIyWlLk6GJQsqaUBKTNV-1">
          <mxGeometry x="110" y="570" width="115" height="30" as="geometry" />
        </mxCell>
      </root>
    </mxGraphModel>
  </diagram>
</mxfile>
